<?xml version="1.0" encoding="UTF-8" standalone="no"?>
<!DOCTYPE svg PUBLIC "-//W3C//DTD SVG 1.1//EN"
 "http://www.w3.org/Graphics/SVG/1.1/DTD/svg11.dtd">
<!-- Generated by graphviz version 2.30.1 (20180828.1746)
 -->
<!-- Title: %3 Pages: 1 -->
<svg width="4030pt" height="476pt"
 viewBox="0.00 0.00 4030.00 476.00" xmlns="http://www.w3.org/2000/svg" xmlns:xlink="http://www.w3.org/1999/xlink">
<g id="graph0" class="graph" transform="scale(1 1) rotate(0) translate(4 472)">
<title>%3</title>
<polygon fill="white" stroke="white" points="-4,5 -4,-472 4027,-472 4027,5 -4,5"/>
<!-- [root] module.Networking.aws_internet_gateway.ig (expand) -->
<g id="node1" class="node"><title>[root] module.Networking.aws_internet_gateway.ig (expand)</title>
<polygon fill="none" stroke="black" points="464,-252 206,-252 206,-216 464,-216 464,-252"/>
<text text-anchor="middle" x="335" y="-230.3" font-family="Times,serif" font-size="14.00">module.Networking.aws_internet_gateway.ig</text>
</g>
<!-- [root] module.Networking.aws_vpc.vpc (expand) -->
<g id="node10" class="node"><title>[root] module.Networking.aws_vpc.vpc (expand)</title>
<polygon fill="none" stroke="black" points="1860.25,-180 1663.75,-180 1663.75,-144 1860.25,-144 1860.25,-180"/>
<text text-anchor="middle" x="1762" y="-158.3" font-family="Times,serif" font-size="14.00">module.Networking.aws_vpc.vpc</text>
</g>
<!-- [root] module.Networking.aws_internet_gateway.ig (expand)&#45;&gt;[root] module.Networking.aws_vpc.vpc (expand) -->
<g id="edge12" class="edge"><title>[root] module.Networking.aws_internet_gateway.ig (expand)&#45;&gt;[root] module.Networking.aws_vpc.vpc (expand)</title>
<path fill="none" stroke="black" d="M464.11,-225.849C521.093,-222.74 588.877,-219.106 650,-216 1017.83,-197.309 1454.21,-177.077 1653.27,-167.955"/>
<polygon fill="black" stroke="black" points="1653.61,-171.443 1663.44,-167.489 1653.29,-164.45 1653.61,-171.443"/>
</g>
<!-- [root] module.Networking.aws_route.public_internet_gateway (expand) -->
<g id="node2" class="node"><title>[root] module.Networking.aws_route.public_internet_gateway (expand)</title>
<polygon fill="none" stroke="black" points="316.25,-324 -0.25,-324 -0.25,-288 316.25,-288 316.25,-324"/>
<text text-anchor="middle" x="158" y="-302.3" font-family="Times,serif" font-size="14.00">module.Networking.aws_route.public_internet_gateway</text>
</g>
<!-- [root] module.Networking.aws_route.public_internet_gateway (expand)&#45;&gt;[root] module.Networking.aws_internet_gateway.ig (expand) -->
<g id="edge13" class="edge"><title>[root] module.Networking.aws_route.public_internet_gateway (expand)&#45;&gt;[root] module.Networking.aws_internet_gateway.ig (expand)</title>
<path fill="none" stroke="black" d="M201.299,-287.876C225.711,-278.222 256.396,-266.087 282.21,-255.878"/>
<polygon fill="black" stroke="black" points="283.83,-259.001 291.842,-252.068 281.255,-252.491 283.83,-259.001"/>
</g>
<!-- [root] module.Networking.aws_route_table.public (expand) -->
<g id="node4" class="node"><title>[root] module.Networking.aws_route_table.public (expand)</title>
<polygon fill="none" stroke="black" points="912.25,-252 659.75,-252 659.75,-216 912.25,-216 912.25,-252"/>
<text text-anchor="middle" x="786" y="-230.3" font-family="Times,serif" font-size="14.00">module.Networking.aws_route_table.public</text>
</g>
<!-- [root] module.Networking.aws_route.public_internet_gateway (expand)&#45;&gt;[root] module.Networking.aws_route_table.public (expand) -->
<g id="edge14" class="edge"><title>[root] module.Networking.aws_route.public_internet_gateway (expand)&#45;&gt;[root] module.Networking.aws_route_table.public (expand)</title>
<path fill="none" stroke="black" d="M310.823,-287.966C414.283,-276.433 549.773,-261.331 649.591,-250.205"/>
<polygon fill="black" stroke="black" points="650.195,-253.659 659.746,-249.073 649.42,-246.702 650.195,-253.659"/>
</g>
<!-- [root] module.Networking.aws_route_table.private (expand) -->
<g id="node3" class="node"><title>[root] module.Networking.aws_route_table.private (expand)</title>
<polygon fill="none" stroke="black" points="1887.25,-252 1632.75,-252 1632.75,-216 1887.25,-216 1887.25,-252"/>
<text text-anchor="middle" x="1760" y="-230.3" font-family="Times,serif" font-size="14.00">module.Networking.aws_route_table.private</text>
</g>
<!-- [root] module.Networking.aws_route_table.private (expand)&#45;&gt;[root] module.Networking.aws_vpc.vpc (expand) -->
<g id="edge15" class="edge"><title>[root] module.Networking.aws_route_table.private (expand)&#45;&gt;[root] module.Networking.aws_vpc.vpc (expand)</title>
<path fill="none" stroke="black" d="M1760.49,-215.697C1760.71,-207.983 1760.98,-198.712 1761.23,-190.112"/>
<polygon fill="black" stroke="black" points="1764.72,-190.2 1761.51,-180.104 1757.73,-190 1764.72,-190.2"/>
</g>
<!-- [root] module.Networking.aws_route_table.public (expand)&#45;&gt;[root] module.Networking.aws_vpc.vpc (expand) -->
<g id="edge16" class="edge"><title>[root] module.Networking.aws_route_table.public (expand)&#45;&gt;[root] module.Networking.aws_vpc.vpc (expand)</title>
<path fill="none" stroke="black" d="M912.594,-223.92C1105.97,-210.051 1471.59,-183.829 1653.52,-170.781"/>
<polygon fill="black" stroke="black" points="1653.91,-174.261 1663.63,-170.055 1653.41,-167.279 1653.91,-174.261"/>
</g>
<!-- [root] module.Networking.aws_route_table_association.private (expand) -->
<g id="node5" class="node"><title>[root] module.Networking.aws_route_table_association.private (expand)</title>
<polygon fill="none" stroke="black" points="2437,-324 2115,-324 2115,-288 2437,-288 2437,-324"/>
<text text-anchor="middle" x="2276" y="-302.3" font-family="Times,serif" font-size="14.00">module.Networking.aws_route_table_association.private</text>
</g>
<!-- [root] module.Networking.aws_route_table_association.private (expand)&#45;&gt;[root] module.Networking.aws_route_table.private (expand) -->
<g id="edge17" class="edge"><title>[root] module.Networking.aws_route_table_association.private (expand)&#45;&gt;[root] module.Networking.aws_route_table.private (expand)</title>
<path fill="none" stroke="black" d="M2150.43,-287.966C2073.33,-277.506 1974.59,-264.111 1895.69,-253.408"/>
<polygon fill="black" stroke="black" points="1896.06,-249.926 1885.68,-252.05 1895.12,-256.863 1896.06,-249.926"/>
</g>
<!-- [root] module.Networking.aws_subnet.private_subnet (expand) -->
<g id="node8" class="node"><title>[root] module.Networking.aws_subnet.private_subnet (expand)</title>
<polygon fill="none" stroke="black" points="2858,-252 2586,-252 2586,-216 2858,-216 2858,-252"/>
<text text-anchor="middle" x="2722" y="-230.3" font-family="Times,serif" font-size="14.00">module.Networking.aws_subnet.private_subnet</text>
</g>
<!-- [root] module.Networking.aws_route_table_association.private (expand)&#45;&gt;[root] module.Networking.aws_subnet.private_subnet (expand) -->
<g id="edge18" class="edge"><title>[root] module.Networking.aws_route_table_association.private (expand)&#45;&gt;[root] module.Networking.aws_subnet.private_subnet (expand)</title>
<path fill="none" stroke="black" d="M2384.53,-287.966C2450.77,-277.57 2535.48,-264.274 2603.46,-253.605"/>
<polygon fill="black" stroke="black" points="2604.03,-257.058 2613.37,-252.05 2602.95,-250.143 2604.03,-257.058"/>
</g>
<!-- [root] module.Networking.aws_route_table_association.public (expand) -->
<g id="node6" class="node"><title>[root] module.Networking.aws_route_table_association.public (expand)</title>
<polygon fill="none" stroke="black" points="1169,-324 849,-324 849,-288 1169,-288 1169,-324"/>
<text text-anchor="middle" x="1009" y="-302.3" font-family="Times,serif" font-size="14.00">module.Networking.aws_route_table_association.public</text>
</g>
<!-- [root] module.Networking.aws_route_table_association.public (expand)&#45;&gt;[root] module.Networking.aws_route_table.public (expand) -->
<g id="edge19" class="edge"><title>[root] module.Networking.aws_route_table_association.public (expand)&#45;&gt;[root] module.Networking.aws_route_table.public (expand)</title>
<path fill="none" stroke="black" d="M954.733,-287.966C923.169,-278.057 883.209,-265.514 850.1,-255.121"/>
<polygon fill="black" stroke="black" points="851.099,-251.766 840.51,-252.111 849.003,-258.445 851.099,-251.766"/>
</g>
<!-- [root] module.Networking.aws_subnet.public_subnet (expand) -->
<g id="node9" class="node"><title>[root] module.Networking.aws_subnet.public_subnet (expand)</title>
<polygon fill="none" stroke="black" points="2567.25,-252 2298.75,-252 2298.75,-216 2567.25,-216 2567.25,-252"/>
<text text-anchor="middle" x="2433" y="-230.3" font-family="Times,serif" font-size="14.00">module.Networking.aws_subnet.public_subnet</text>
</g>
<!-- [root] module.Networking.aws_route_table_association.public (expand)&#45;&gt;[root] module.Networking.aws_subnet.public_subnet (expand) -->
<g id="edge20" class="edge"><title>[root] module.Networking.aws_route_table_association.public (expand)&#45;&gt;[root] module.Networking.aws_subnet.public_subnet (expand)</title>
<path fill="none" stroke="black" d="M1169.1,-288.617C1172.09,-288.402 1175.06,-288.195 1178,-288 1667.58,-255.482 1794.62,-288.536 2288.27,-252.007"/>
<polygon fill="black" stroke="black" points="2288.8,-255.477 2298.51,-251.243 2288.28,-248.496 2288.8,-255.477"/>
</g>
<!-- [root] module.Networking.aws_security_group.default (expand) -->
<g id="node7" class="node"><title>[root] module.Networking.aws_security_group.default (expand)</title>
<polygon fill="none" stroke="black" points="1578.25,-252 1301.75,-252 1301.75,-216 1578.25,-216 1578.25,-252"/>
<text text-anchor="middle" x="1440" y="-230.3" font-family="Times,serif" font-size="14.00">module.Networking.aws_security_group.default</text>
</g>
<!-- [root] module.Networking.aws_security_group.default (expand)&#45;&gt;[root] module.Networking.aws_vpc.vpc (expand) -->
<g id="edge21" class="edge"><title>[root] module.Networking.aws_security_group.default (expand)&#45;&gt;[root] module.Networking.aws_vpc.vpc (expand)</title>
<path fill="none" stroke="black" d="M1518.36,-215.966C1565.29,-205.762 1625.09,-192.764 1673.69,-182.198"/>
<polygon fill="black" stroke="black" points="1674.54,-185.595 1683.57,-180.05 1673.05,-178.754 1674.54,-185.595"/>
</g>
<!-- [root] module.Networking.aws_subnet.private_subnet (expand)&#45;&gt;[root] module.Networking.aws_vpc.vpc (expand) -->
<g id="edge22" class="edge"><title>[root] module.Networking.aws_subnet.private_subnet (expand)&#45;&gt;[root] module.Networking.aws_vpc.vpc (expand)</title>
<path fill="none" stroke="black" d="M2585.63,-216.9C2582.39,-216.589 2579.18,-216.288 2576,-216 2541.5,-212.871 2084.19,-183.562 1870.57,-169.922"/>
<polygon fill="black" stroke="black" points="1870.47,-166.409 1860.27,-169.264 1870.03,-173.394 1870.47,-166.409"/>
</g>
<!-- [root] module.Networking.var.availability_zones (expand) -->
<g id="node30" class="node"><title>[root] module.Networking.var.availability_zones (expand)</title>
<ellipse fill="none" stroke="black" cx="2719" cy="-162" rx="214.221" ry="18"/>
<text text-anchor="middle" x="2719" y="-158.3" font-family="Times,serif" font-size="14.00">[root] module.Networking.var.availability_zones (expand)</text>
</g>
<!-- [root] module.Networking.aws_subnet.private_subnet (expand)&#45;&gt;[root] module.Networking.var.availability_zones (expand) -->
<g id="edge23" class="edge"><title>[root] module.Networking.aws_subnet.private_subnet (expand)&#45;&gt;[root] module.Networking.var.availability_zones (expand)</title>
<path fill="none" stroke="black" d="M2721.26,-215.697C2720.93,-207.983 2720.53,-198.712 2720.16,-190.112"/>
<polygon fill="black" stroke="black" points="2723.66,-189.945 2719.73,-180.104 2716.66,-190.245 2723.66,-189.945"/>
</g>
<!-- [root] module.Networking.var.private_subnets_cidr (expand) -->
<g id="node31" class="node"><title>[root] module.Networking.var.private_subnets_cidr (expand)</title>
<ellipse fill="none" stroke="black" cx="3175" cy="-162" rx="223.37" ry="18"/>
<text text-anchor="middle" x="3175" y="-158.3" font-family="Times,serif" font-size="14.00">[root] module.Networking.var.private_subnets_cidr (expand)</text>
</g>
<!-- [root] module.Networking.aws_subnet.private_subnet (expand)&#45;&gt;[root] module.Networking.var.private_subnets_cidr (expand) -->
<g id="edge24" class="edge"><title>[root] module.Networking.aws_subnet.private_subnet (expand)&#45;&gt;[root] module.Networking.var.private_subnets_cidr (expand)</title>
<path fill="none" stroke="black" d="M2832.24,-215.966C2903.38,-204.973 2995.51,-190.735 3066.34,-179.791"/>
<polygon fill="black" stroke="black" points="3067.28,-183.187 3076.63,-178.201 3066.21,-176.269 3067.28,-183.187"/>
</g>
<!-- [root] module.Networking.aws_subnet.public_subnet (expand)&#45;&gt;[root] module.Networking.aws_vpc.vpc (expand) -->
<g id="edge25" class="edge"><title>[root] module.Networking.aws_subnet.public_subnet (expand)&#45;&gt;[root] module.Networking.aws_vpc.vpc (expand)</title>
<path fill="none" stroke="black" d="M2298.49,-217.046C2295.29,-216.691 2292.13,-216.342 2289,-216 2144.44,-200.199 1977.36,-183.694 1870.76,-173.385"/>
<polygon fill="black" stroke="black" points="1870.93,-169.885 1860.64,-172.407 1870.26,-176.852 1870.93,-169.885"/>
</g>
<!-- [root] module.Networking.aws_subnet.public_subnet (expand)&#45;&gt;[root] module.Networking.var.availability_zones (expand) -->
<g id="edge26" class="edge"><title>[root] module.Networking.aws_subnet.public_subnet (expand)&#45;&gt;[root] module.Networking.var.availability_zones (expand)</title>
<path fill="none" stroke="black" d="M2502.6,-215.966C2545.09,-205.566 2599.44,-192.262 2643.05,-181.59"/>
<polygon fill="black" stroke="black" points="2644.15,-184.924 2653.03,-179.147 2642.48,-178.125 2644.15,-184.924"/>
</g>
<!-- [root] module.Networking.var.public_subnets_cidr (expand) -->
<g id="node32" class="node"><title>[root] module.Networking.var.public_subnets_cidr (expand)</title>
<ellipse fill="none" stroke="black" cx="2264" cy="-162" rx="221.921" ry="18"/>
<text text-anchor="middle" x="2264" y="-158.3" font-family="Times,serif" font-size="14.00">[root] module.Networking.var.public_subnets_cidr (expand)</text>
</g>
<!-- [root] module.Networking.aws_subnet.public_subnet (expand)&#45;&gt;[root] module.Networking.var.public_subnets_cidr (expand) -->
<g id="edge27" class="edge"><title>[root] module.Networking.aws_subnet.public_subnet (expand)&#45;&gt;[root] module.Networking.var.public_subnets_cidr (expand)</title>
<path fill="none" stroke="black" d="M2391.66,-215.876C2368.09,-206.114 2338.4,-193.816 2313.58,-183.537"/>
<polygon fill="black" stroke="black" points="2314.91,-180.299 2304.33,-179.706 2312.23,-186.766 2314.91,-180.299"/>
</g>
<!-- [root] module.Networking.var.environment (expand) -->
<g id="node33" class="node"><title>[root] module.Networking.var.environment (expand)</title>
<ellipse fill="none" stroke="black" cx="2161" cy="-90" rx="195.924" ry="18"/>
<text text-anchor="middle" x="2161" y="-86.3" font-family="Times,serif" font-size="14.00">[root] module.Networking.var.environment (expand)</text>
</g>
<!-- [root] module.Networking.aws_vpc.vpc (expand)&#45;&gt;[root] module.Networking.var.environment (expand) -->
<g id="edge28" class="edge"><title>[root] module.Networking.aws_vpc.vpc (expand)&#45;&gt;[root] module.Networking.var.environment (expand)</title>
<path fill="none" stroke="black" d="M1859.1,-143.966C1921.37,-133.04 2001.91,-118.91 2064.14,-107.993"/>
<polygon fill="black" stroke="black" points="2065.11,-111.376 2074.36,-106.201 2063.9,-104.481 2065.11,-111.376"/>
</g>
<!-- [root] module.Networking.var.vpc_cidr (expand) -->
<g id="node34" class="node"><title>[root] module.Networking.var.vpc_cidr (expand)</title>
<ellipse fill="none" stroke="black" cx="1764" cy="-90" rx="182.451" ry="18"/>
<text text-anchor="middle" x="1764" y="-86.3" font-family="Times,serif" font-size="14.00">[root] module.Networking.var.vpc_cidr (expand)</text>
</g>
<!-- [root] module.Networking.aws_vpc.vpc (expand)&#45;&gt;[root] module.Networking.var.vpc_cidr (expand) -->
<g id="edge29" class="edge"><title>[root] module.Networking.aws_vpc.vpc (expand)&#45;&gt;[root] module.Networking.var.vpc_cidr (expand)</title>
<path fill="none" stroke="black" d="M1762.49,-143.697C1762.71,-135.983 1762.98,-126.712 1763.23,-118.112"/>
<polygon fill="black" stroke="black" points="1766.72,-118.2 1763.51,-108.104 1759.73,-118 1766.72,-118.2"/>
</g>
<!-- [root] provider[&quot;registry.terraform.io/hashicorp/aws&quot;] -->
<g id="node11" class="node"><title>[root] provider[&quot;registry.terraform.io/hashicorp/aws&quot;]</title>
<polygon fill="none" stroke="black" points="1313,-108 1062.98,-90 1313,-72 1563.02,-90 1313,-108"/>
<text text-anchor="middle" x="1313" y="-86.3" font-family="Times,serif" font-size="14.00">provider[&quot;registry.terraform.io/hashicorp/aws&quot;]</text>
</g>
<!-- [root] module.Networking.aws_vpc.vpc (expand)&#45;&gt;[root] provider[&quot;registry.terraform.io/hashicorp/aws&quot;] -->
<g id="edge30" class="edge"><title>[root] module.Networking.aws_vpc.vpc (expand)&#45;&gt;[root] provider[&quot;registry.terraform.io/hashicorp/aws&quot;]</title>
<path fill="none" stroke="black" d="M1663.74,-145.681C1584.21,-133.282 1473.35,-115.999 1397.69,-104.204"/>
<polygon fill="black" stroke="black" points="1398.14,-100.731 1387.72,-102.649 1397.06,-107.648 1398.14,-100.731"/>
</g>
<!-- [root] var.AWS_ACCESS_KEY -->
<g id="node14" class="node"><title>[root] var.AWS_ACCESS_KEY</title>
<polygon fill="none" stroke="black" points="1298.25,-36 1147.75,-36 1147.75,-0 1304.25,-0 1304.25,-30 1298.25,-36"/>
<polyline fill="none" stroke="black" points="1298.25,-36 1298.25,-30 "/>
<polyline fill="none" stroke="black" points="1304.25,-30 1298.25,-30 "/>
<text text-anchor="middle" x="1226" y="-14.3" font-family="Times,serif" font-size="14.00">var.AWS_ACCESS_KEY</text>
</g>
<!-- [root] provider[&quot;registry.terraform.io/hashicorp/aws&quot;]&#45;&gt;[root] var.AWS_ACCESS_KEY -->
<g id="edge53" class="edge"><title>[root] provider[&quot;registry.terraform.io/hashicorp/aws&quot;]&#45;&gt;[root] var.AWS_ACCESS_KEY</title>
<path fill="none" stroke="black" d="M1293.26,-73.1159C1281.99,-64.0494 1267.65,-52.5141 1255.11,-42.4249"/>
<polygon fill="black" stroke="black" points="1257.17,-39.5861 1247.18,-36.0442 1252.78,-45.0399 1257.17,-39.5861"/>
</g>
<!-- [root] var.AWS_SECRET_KEY -->
<g id="node15" class="node"><title>[root] var.AWS_SECRET_KEY</title>
<polygon fill="none" stroke="black" points="1473.25,-36 1322.75,-36 1322.75,-0 1479.25,-0 1479.25,-30 1473.25,-36"/>
<polyline fill="none" stroke="black" points="1473.25,-36 1473.25,-30 "/>
<polyline fill="none" stroke="black" points="1479.25,-30 1473.25,-30 "/>
<text text-anchor="middle" x="1401" y="-14.3" font-family="Times,serif" font-size="14.00">var.AWS_SECRET_KEY</text>
</g>
<!-- [root] provider[&quot;registry.terraform.io/hashicorp/aws&quot;]&#45;&gt;[root] var.AWS_SECRET_KEY -->
<g id="edge54" class="edge"><title>[root] provider[&quot;registry.terraform.io/hashicorp/aws&quot;]&#45;&gt;[root] var.AWS_SECRET_KEY</title>
<path fill="none" stroke="black" d="M1332.97,-73.1159C1344.37,-64.0494 1358.87,-52.5141 1371.55,-42.4249"/>
<polygon fill="black" stroke="black" points="1373.93,-45.0086 1379.57,-36.0442 1369.57,-39.5304 1373.93,-45.0086"/>
</g>
<!-- [root] var.region -->
<g id="node19" class="node"><title>[root] var.region</title>
<polygon fill="none" stroke="black" points="2835.25,-36 2770.75,-36 2770.75,-0 2841.25,-0 2841.25,-30 2835.25,-36"/>
<polyline fill="none" stroke="black" points="2835.25,-36 2835.25,-30 "/>
<polyline fill="none" stroke="black" points="2841.25,-30 2835.25,-30 "/>
<text text-anchor="middle" x="2806" y="-14.3" font-family="Times,serif" font-size="14.00">var.region</text>
</g>
<!-- [root] provider[&quot;registry.terraform.io/hashicorp/aws&quot;]&#45;&gt;[root] var.region -->
<g id="edge55" class="edge"><title>[root] provider[&quot;registry.terraform.io/hashicorp/aws&quot;]&#45;&gt;[root] var.region</title>
<path fill="none" stroke="black" d="M1430.6,-80.4322C1474.91,-77.4277 1525.75,-74.246 1572,-72 2079.21,-47.3667 2209.1,-90.2911 2714,-36 2729.22,-34.3633 2745.7,-31.6275 2760.46,-28.8237"/>
<polygon fill="black" stroke="black" points="2761.22,-32.2415 2770.36,-26.8845 2759.87,-25.372 2761.22,-32.2415"/>
</g>
<!-- [root] provider[&quot;registry.terraform.io/hashicorp/random&quot;] -->
<g id="node12" class="node"><title>[root] provider[&quot;registry.terraform.io/hashicorp/random&quot;]</title>
<polygon fill="none" stroke="black" points="3751,-252 3479.77,-234 3751,-216 4022.23,-234 3751,-252"/>
<text text-anchor="middle" x="3751" y="-230.3" font-family="Times,serif" font-size="14.00">provider[&quot;registry.terraform.io/hashicorp/random&quot;]</text>
</g>
<!-- [root] random_id.random_id_prefix (expand) -->
<g id="node13" class="node"><title>[root] random_id.random_id_prefix (expand)</title>
<polygon fill="none" stroke="black" points="3748.25,-324 3571.75,-324 3571.75,-288 3748.25,-288 3748.25,-324"/>
<text text-anchor="middle" x="3660" y="-302.3" font-family="Times,serif" font-size="14.00">random_id.random_id_prefix</text>
</g>
<!-- [root] random_id.random_id_prefix (expand)&#45;&gt;[root] provider[&quot;registry.terraform.io/hashicorp/random&quot;] -->
<g id="edge57" class="edge"><title>[root] random_id.random_id_prefix (expand)&#45;&gt;[root] provider[&quot;registry.terraform.io/hashicorp/random&quot;]</title>
<path fill="none" stroke="black" d="M3682.49,-287.697C3694.58,-278.397 3709.61,-266.836 3722.51,-256.914"/>
<polygon fill="black" stroke="black" points="3724.84,-259.543 3730.63,-250.671 3720.57,-253.994 3724.84,-259.543"/>
</g>
<!-- [root] var.environment -->
<g id="node16" class="node"><title>[root] var.environment</title>
<polygon fill="none" stroke="black" points="2207,-36 2109,-36 2109,-0 2213,-0 2213,-30 2207,-36"/>
<polyline fill="none" stroke="black" points="2207,-36 2207,-30 "/>
<polyline fill="none" stroke="black" points="2213,-30 2207,-30 "/>
<text text-anchor="middle" x="2161" y="-14.3" font-family="Times,serif" font-size="14.00">var.environment</text>
</g>
<!-- [root] var.private_subnets_cidr -->
<g id="node17" class="node"><title>[root] var.private_subnets_cidr</title>
<polygon fill="none" stroke="black" points="3235.25,-108 3094.75,-108 3094.75,-72 3241.25,-72 3241.25,-102 3235.25,-108"/>
<polyline fill="none" stroke="black" points="3235.25,-108 3235.25,-102 "/>
<polyline fill="none" stroke="black" points="3241.25,-102 3235.25,-102 "/>
<text text-anchor="middle" x="3168" y="-86.3" font-family="Times,serif" font-size="14.00">var.private_subnets_cidr</text>
</g>
<!-- [root] var.public_subnets_cidr -->
<g id="node18" class="node"><title>[root] var.public_subnets_cidr</title>
<polygon fill="none" stroke="black" points="2514.25,-108 2375.75,-108 2375.75,-72 2520.25,-72 2520.25,-102 2514.25,-108"/>
<polyline fill="none" stroke="black" points="2514.25,-108 2514.25,-102 "/>
<polyline fill="none" stroke="black" points="2520.25,-102 2514.25,-102 "/>
<text text-anchor="middle" x="2448" y="-86.3" font-family="Times,serif" font-size="14.00">var.public_subnets_cidr</text>
</g>
<!-- [root] var.vpc_cidr -->
<g id="node20" class="node"><title>[root] var.vpc_cidr</title>
<polygon fill="none" stroke="black" points="1799.25,-36 1722.75,-36 1722.75,-0 1805.25,-0 1805.25,-30 1799.25,-36"/>
<polyline fill="none" stroke="black" points="1799.25,-36 1799.25,-30 "/>
<polyline fill="none" stroke="black" points="1805.25,-30 1799.25,-30 "/>
<text text-anchor="middle" x="1764" y="-14.3" font-family="Times,serif" font-size="14.00">var.vpc_cidr</text>
</g>
<!-- [root] local.production_availability_zones (expand) -->
<g id="node21" class="node"><title>[root] local.production_availability_zones (expand)</title>
<ellipse fill="none" stroke="black" cx="2806" cy="-90" rx="191.125" ry="18"/>
<text text-anchor="middle" x="2806" y="-86.3" font-family="Times,serif" font-size="14.00">[root] local.production_availability_zones (expand)</text>
</g>
<!-- [root] local.production_availability_zones (expand)&#45;&gt;[root] var.region -->
<g id="edge1" class="edge"><title>[root] local.production_availability_zones (expand)&#45;&gt;[root] var.region</title>
<path fill="none" stroke="black" d="M2806,-71.6966C2806,-63.9827 2806,-54.7125 2806,-46.1124"/>
<polygon fill="black" stroke="black" points="2809.5,-46.1043 2806,-36.1043 2802.5,-46.1044 2809.5,-46.1043"/>
</g>
<!-- [root] module.Networking (close) -->
<g id="node22" class="node"><title>[root] module.Networking (close)</title>
<ellipse fill="none" stroke="black" cx="2081" cy="-378" rx="129.483" ry="18"/>
<text text-anchor="middle" x="2081" y="-374.3" font-family="Times,serif" font-size="14.00">[root] module.Networking (close)</text>
</g>
<!-- [root] module.Networking (close)&#45;&gt;[root] module.Networking.aws_route.public_internet_gateway (expand) -->
<g id="edge2" class="edge"><title>[root] module.Networking (close)&#45;&gt;[root] module.Networking.aws_route.public_internet_gateway (expand)</title>
<path fill="none" stroke="black" d="M1953.97,-374.332C1609.66,-366.915 662.505,-345.238 326.5,-323.989"/>
<polygon fill="black" stroke="black" points="326.459,-320.479 316.254,-323.328 326.009,-327.464 326.459,-320.479"/>
</g>
<!-- [root] module.Networking (close)&#45;&gt;[root] module.Networking.aws_route_table_association.private (expand) -->
<g id="edge3" class="edge"><title>[root] module.Networking (close)&#45;&gt;[root] module.Networking.aws_route_table_association.private (expand)</title>
<path fill="none" stroke="black" d="M2125.74,-360.941C2153.44,-350.997 2189.27,-338.135 2218.99,-327.465"/>
<polygon fill="black" stroke="black" points="2220.18,-330.757 2228.41,-324.084 2217.81,-324.169 2220.18,-330.757"/>
</g>
<!-- [root] module.Networking (close)&#45;&gt;[root] module.Networking.aws_route_table_association.public (expand) -->
<g id="edge4" class="edge"><title>[root] module.Networking (close)&#45;&gt;[root] module.Networking.aws_route_table_association.public (expand)</title>
<path fill="none" stroke="black" d="M1960.03,-371.502C1788.7,-363.357 1465.32,-346.658 1179.26,-324.082"/>
<polygon fill="black" stroke="black" points="1179.35,-320.577 1169.1,-323.276 1178.8,-327.556 1179.35,-320.577"/>
</g>
<!-- [root] module.Networking.output.default_sg_id (expand) -->
<g id="node23" class="node"><title>[root] module.Networking.output.default_sg_id (expand)</title>
<ellipse fill="none" stroke="black" cx="1886" cy="-306" rx="211.347" ry="18"/>
<text text-anchor="middle" x="1886" y="-302.3" font-family="Times,serif" font-size="14.00">[root] module.Networking.output.default_sg_id (expand)</text>
</g>
<!-- [root] module.Networking (close)&#45;&gt;[root] module.Networking.output.default_sg_id (expand) -->
<g id="edge5" class="edge"><title>[root] module.Networking (close)&#45;&gt;[root] module.Networking.output.default_sg_id (expand)</title>
<path fill="none" stroke="black" d="M2036.26,-360.941C2008.16,-350.852 1971.68,-337.758 1941.71,-326.998"/>
<polygon fill="black" stroke="black" points="1942.82,-323.677 1932.22,-323.593 1940.45,-330.266 1942.82,-323.677"/>
</g>
<!-- [root] module.Networking.output.private_subnets_id (expand) -->
<g id="node24" class="node"><title>[root] module.Networking.output.private_subnets_id (expand)</title>
<ellipse fill="none" stroke="black" cx="3195" cy="-306" rx="229.145" ry="18"/>
<text text-anchor="middle" x="3195" y="-302.3" font-family="Times,serif" font-size="14.00">[root] module.Networking.output.private_subnets_id (expand)</text>
</g>
<!-- [root] module.Networking (close)&#45;&gt;[root] module.Networking.output.private_subnets_id (expand) -->
<g id="edge6" class="edge"><title>[root] module.Networking (close)&#45;&gt;[root] module.Networking.output.private_subnets_id (expand)</title>
<path fill="none" stroke="black" d="M2198.14,-370.297C2366.02,-360.601 2684.74,-341.862 2956,-324 2977.69,-322.571 3000.49,-321.018 3023.04,-319.449"/>
<polygon fill="black" stroke="black" points="3023.3,-322.94 3033.03,-318.752 3022.81,-315.957 3023.3,-322.94"/>
</g>
<!-- [root] module.Networking.output.public_route_table (expand) -->
<g id="node25" class="node"><title>[root] module.Networking.output.public_route_table (expand)</title>
<ellipse fill="none" stroke="black" cx="564" cy="-306" rx="229.145" ry="18"/>
<text text-anchor="middle" x="564" y="-302.3" font-family="Times,serif" font-size="14.00">[root] module.Networking.output.public_route_table (expand)</text>
</g>
<!-- [root] module.Networking (close)&#45;&gt;[root] module.Networking.output.public_route_table (expand) -->
<g id="edge7" class="edge"><title>[root] module.Networking (close)&#45;&gt;[root] module.Networking.output.public_route_table (expand)</title>
<path fill="none" stroke="black" d="M1957.66,-372.503C1734.58,-364.196 1249.17,-345.337 840,-324 809.285,-322.398 776.658,-320.534 744.999,-318.638"/>
<polygon fill="black" stroke="black" points="744.95,-315.129 734.758,-318.022 744.529,-322.116 744.95,-315.129"/>
</g>
<!-- [root] module.Networking.output.public_subnets_id (expand) -->
<g id="node26" class="node"><title>[root] module.Networking.output.public_subnets_id (expand)</title>
<ellipse fill="none" stroke="black" cx="2720" cy="-306" rx="227.22" ry="18"/>
<text text-anchor="middle" x="2720" y="-302.3" font-family="Times,serif" font-size="14.00">[root] module.Networking.output.public_subnets_id (expand)</text>
</g>
<!-- [root] module.Networking (close)&#45;&gt;[root] module.Networking.output.public_subnets_id (expand) -->
<g id="edge8" class="edge"><title>[root] module.Networking (close)&#45;&gt;[root] module.Networking.output.public_subnets_id (expand)</title>
<path fill="none" stroke="black" d="M2179.44,-366.216C2287.39,-354.391 2461.36,-335.333 2582.68,-322.042"/>
<polygon fill="black" stroke="black" points="2583.23,-325.504 2592.79,-320.935 2582.47,-318.545 2583.23,-325.504"/>
</g>
<!-- [root] module.Networking.output.security_groups_ids (expand) -->
<g id="node27" class="node"><title>[root] module.Networking.output.security_groups_ids (expand)</title>
<ellipse fill="none" stroke="black" cx="1422" cy="-306" rx="234.444" ry="18"/>
<text text-anchor="middle" x="1422" y="-302.3" font-family="Times,serif" font-size="14.00">[root] module.Networking.output.security_groups_ids (expand)</text>
</g>
<!-- [root] module.Networking (close)&#45;&gt;[root] module.Networking.output.security_groups_ids (expand) -->
<g id="edge9" class="edge"><title>[root] module.Networking (close)&#45;&gt;[root] module.Networking.output.security_groups_ids (expand)</title>
<path fill="none" stroke="black" d="M1981.63,-366.445C1870.39,-354.628 1689.26,-335.388 1563.31,-322.01"/>
<polygon fill="black" stroke="black" points="1563.51,-318.512 1553.2,-320.936 1562.77,-325.473 1563.51,-318.512"/>
</g>
<!-- [root] module.Networking.output.vpc_id (expand) -->
<g id="node28" class="node"><title>[root] module.Networking.output.vpc_id (expand)</title>
<ellipse fill="none" stroke="black" cx="2093" cy="-234" rx="187.251" ry="18"/>
<text text-anchor="middle" x="2093" y="-230.3" font-family="Times,serif" font-size="14.00">[root] module.Networking.output.vpc_id (expand)</text>
</g>
<!-- [root] module.Networking (close)&#45;&gt;[root] module.Networking.output.vpc_id (expand) -->
<g id="edge10" class="edge"><title>[root] module.Networking (close)&#45;&gt;[root] module.Networking.output.vpc_id (expand)</title>
<path fill="none" stroke="black" d="M2209.75,-375.569C2302.17,-371.489 2415.57,-359.166 2446,-324 2456.47,-311.901 2456.44,-300.125 2446,-288 2431.9,-271.62 2328.32,-257.352 2236.98,-247.759"/>
<polygon fill="black" stroke="black" points="2237.07,-244.25 2226.76,-246.7 2236.35,-251.213 2237.07,-244.25"/>
</g>
<!-- [root] module.Networking.var.region (expand) -->
<g id="node29" class="node"><title>[root] module.Networking.var.region (expand)</title>
<ellipse fill="none" stroke="black" cx="3434" cy="-90" rx="174.277" ry="18"/>
<text text-anchor="middle" x="3434" y="-86.3" font-family="Times,serif" font-size="14.00">[root] module.Networking.var.region (expand)</text>
</g>
<!-- [root] module.Networking (close)&#45;&gt;[root] module.Networking.var.region (expand) -->
<g id="edge11" class="edge"><title>[root] module.Networking (close)&#45;&gt;[root] module.Networking.var.region (expand)</title>
<path fill="none" stroke="black" d="M2208.01,-374.327C2540.42,-367.034 3411.88,-345.868 3433,-324 3486.65,-268.446 3460.83,-166.162 3444.24,-117.747"/>
<polygon fill="black" stroke="black" points="3447.52,-116.52 3440.87,-108.27 3440.92,-118.865 3447.52,-116.52"/>
</g>
<!-- [root] module.Networking.output.default_sg_id (expand)&#45;&gt;[root] module.Networking.aws_security_group.default (expand) -->
<g id="edge31" class="edge"><title>[root] module.Networking.output.default_sg_id (expand)&#45;&gt;[root] module.Networking.aws_security_group.default (expand)</title>
<path fill="none" stroke="black" d="M1790.05,-289.94C1722.19,-279.291 1630.79,-264.945 1558.4,-253.583"/>
<polygon fill="black" stroke="black" points="1558.74,-250.093 1548.32,-252 1557.65,-257.009 1558.74,-250.093"/>
</g>
<!-- [root] module.Networking.output.private_subnets_id (expand)&#45;&gt;[root] module.Networking.aws_subnet.private_subnet (expand) -->
<g id="edge32" class="edge"><title>[root] module.Networking.output.private_subnets_id (expand)&#45;&gt;[root] module.Networking.aws_subnet.private_subnet (expand)</title>
<path fill="none" stroke="black" d="M3092.66,-289.854C3020.65,-279.197 2923.84,-264.87 2847.22,-253.531"/>
<polygon fill="black" stroke="black" points="2847.43,-250.024 2837.02,-252.022 2846.4,-256.948 2847.43,-250.024"/>
</g>
<!-- [root] module.Networking.output.public_route_table (expand)&#45;&gt;[root] module.Networking.aws_route_table.public (expand) -->
<g id="edge33" class="edge"><title>[root] module.Networking.output.public_route_table (expand)&#45;&gt;[root] module.Networking.aws_route_table.public (expand)</title>
<path fill="none" stroke="black" d="M616.611,-288.411C648.237,-278.439 688.703,-265.679 722.152,-255.132"/>
<polygon fill="black" stroke="black" points="723.352,-258.424 731.837,-252.078 721.247,-251.748 723.352,-258.424"/>
</g>
<!-- [root] module.Networking.output.public_subnets_id (expand)&#45;&gt;[root] module.Networking.aws_subnet.public_subnet (expand) -->
<g id="edge34" class="edge"><title>[root] module.Networking.output.public_subnets_id (expand)&#45;&gt;[root] module.Networking.aws_subnet.public_subnet (expand)</title>
<path fill="none" stroke="black" d="M2653.44,-288.765C2611.41,-278.514 2556.88,-265.214 2512.57,-254.408"/>
<polygon fill="black" stroke="black" points="2513.25,-250.97 2502.7,-252.001 2511.59,-257.771 2513.25,-250.97"/>
</g>
<!-- [root] module.Networking.output.security_groups_ids (expand)&#45;&gt;[root] module.Networking.aws_security_group.default (expand) -->
<g id="edge35" class="edge"><title>[root] module.Networking.output.security_groups_ids (expand)&#45;&gt;[root] module.Networking.aws_security_group.default (expand)</title>
<path fill="none" stroke="black" d="M1426.45,-287.697C1428.45,-279.898 1430.87,-270.509 1433.1,-261.829"/>
<polygon fill="black" stroke="black" points="1436.5,-262.661 1435.6,-252.104 1429.72,-260.918 1436.5,-262.661"/>
</g>
<!-- [root] module.Networking.output.vpc_id (expand)&#45;&gt;[root] module.Networking.aws_vpc.vpc (expand) -->
<g id="edge36" class="edge"><title>[root] module.Networking.output.vpc_id (expand)&#45;&gt;[root] module.Networking.aws_vpc.vpc (expand)</title>
<path fill="none" stroke="black" d="M2019.13,-217.378C1969.9,-206.968 1904.89,-193.218 1852.55,-182.15"/>
<polygon fill="black" stroke="black" points="1853.1,-178.69 1842.6,-180.045 1851.66,-185.538 1853.1,-178.69"/>
</g>
<!-- [root] module.Networking (expand) -->
<g id="node35" class="node"><title>[root] module.Networking (expand)</title>
<ellipse fill="none" stroke="black" cx="2568" cy="-18" rx="137.207" ry="18"/>
<text text-anchor="middle" x="2568" y="-14.3" font-family="Times,serif" font-size="14.00">[root] module.Networking (expand)</text>
</g>
<!-- [root] module.Networking.var.region (expand)&#45;&gt;[root] module.Networking (expand) -->
<g id="edge45" class="edge"><title>[root] module.Networking.var.region (expand)&#45;&gt;[root] module.Networking (expand)</title>
<path fill="none" stroke="black" d="M3310.31,-77.2532C3290.16,-75.4311 3269.5,-73.6186 3250,-72 3032.83,-53.9749 2978.21,-53.561 2761,-36 2737.13,-34.0703 2711.61,-31.8992 2687.21,-29.7701"/>
<polygon fill="black" stroke="black" points="2687.46,-26.2787 2677.19,-28.8933 2686.85,-33.2521 2687.46,-26.2787"/>
</g>
<!-- [root] module.Networking.var.region (expand)&#45;&gt;[root] var.region -->
<g id="edge46" class="edge"><title>[root] module.Networking.var.region (expand)&#45;&gt;[root] var.region</title>
<path fill="none" stroke="black" d="M3320.27,-76.3235C3180.28,-60.719 2949.13,-34.9538 2851.63,-24.0859"/>
<polygon fill="black" stroke="black" points="2851.84,-20.5878 2841.51,-22.9584 2851.06,-27.5448 2851.84,-20.5878"/>
</g>
<!-- [root] module.Networking.var.availability_zones (expand)&#45;&gt;[root] local.production_availability_zones (expand) -->
<g id="edge37" class="edge"><title>[root] module.Networking.var.availability_zones (expand)&#45;&gt;[root] local.production_availability_zones (expand)</title>
<path fill="none" stroke="black" d="M2740.06,-144.055C2751.09,-135.179 2764.78,-124.169 2776.81,-114.483"/>
<polygon fill="black" stroke="black" points="2779.24,-117.027 2784.83,-108.032 2774.85,-111.574 2779.24,-117.027"/>
</g>
<!-- [root] module.Networking.var.availability_zones (expand)&#45;&gt;[root] module.Networking (expand) -->
<g id="edge38" class="edge"><title>[root] module.Networking.var.availability_zones (expand)&#45;&gt;[root] module.Networking (expand)</title>
<path fill="none" stroke="black" d="M2663.93,-144.518C2643.65,-136.225 2621.8,-124.367 2606,-108 2589.38,-90.7884 2579.49,-65.1853 2573.99,-45.8526"/>
<polygon fill="black" stroke="black" points="2577.36,-44.9045 2571.43,-36.1217 2570.59,-46.6828 2577.36,-44.9045"/>
</g>
<!-- [root] module.Networking.var.private_subnets_cidr (expand)&#45;&gt;[root] module.Networking (expand) -->
<g id="edge41" class="edge"><title>[root] module.Networking.var.private_subnets_cidr (expand)&#45;&gt;[root] module.Networking (expand)</title>
<path fill="none" stroke="black" d="M3146.02,-144.088C3105.67,-120.833 3034.33,-80.8434 3006,-72 2975.81,-62.5746 2802.21,-43.246 2682.85,-30.7186"/>
<polygon fill="black" stroke="black" points="2682.87,-27.2013 2672.56,-29.641 2682.14,-34.1633 2682.87,-27.2013"/>
</g>
<!-- [root] module.Networking.var.private_subnets_cidr (expand)&#45;&gt;[root] var.private_subnets_cidr -->
<g id="edge42" class="edge"><title>[root] module.Networking.var.private_subnets_cidr (expand)&#45;&gt;[root] var.private_subnets_cidr</title>
<path fill="none" stroke="black" d="M3173.27,-143.697C3172.5,-135.983 3171.57,-126.712 3170.71,-118.112"/>
<polygon fill="black" stroke="black" points="3174.19,-117.706 3169.71,-108.104 3167.22,-118.403 3174.19,-117.706"/>
</g>
<!-- [root] module.Networking.var.public_subnets_cidr (expand)&#45;&gt;[root] module.Networking (expand) -->
<g id="edge43" class="edge"><title>[root] module.Networking.var.public_subnets_cidr (expand)&#45;&gt;[root] module.Networking (expand)</title>
<path fill="none" stroke="black" d="M2389.27,-147.121C2446.72,-138.556 2506.93,-125.759 2529,-108 2548.03,-92.6895 2558.01,-66.2345 2563.09,-46.1352"/>
<polygon fill="black" stroke="black" points="2566.52,-46.8232 2565.32,-36.2966 2559.69,-45.2745 2566.52,-46.8232"/>
</g>
<!-- [root] module.Networking.var.public_subnets_cidr (expand)&#45;&gt;[root] var.public_subnets_cidr -->
<g id="edge44" class="edge"><title>[root] module.Networking.var.public_subnets_cidr (expand)&#45;&gt;[root] var.public_subnets_cidr</title>
<path fill="none" stroke="black" d="M2308.07,-144.233C2333.75,-134.464 2366.34,-122.066 2393.61,-111.693"/>
<polygon fill="black" stroke="black" points="2394.91,-114.943 2403.01,-108.116 2392.42,-108.401 2394.91,-114.943"/>
</g>
<!-- [root] module.Networking.var.environment (expand)&#45;&gt;[root] module.Networking (expand) -->
<g id="edge39" class="edge"><title>[root] module.Networking.var.environment (expand)&#45;&gt;[root] module.Networking (expand)</title>
<path fill="none" stroke="black" d="M2248.81,-73.8972C2316.63,-62.2326 2410.13,-46.1527 2478.4,-34.4111"/>
<polygon fill="black" stroke="black" points="2479.02,-37.8557 2488.28,-32.7113 2477.83,-30.957 2479.02,-37.8557"/>
</g>
<!-- [root] module.Networking.var.environment (expand)&#45;&gt;[root] var.environment -->
<g id="edge40" class="edge"><title>[root] module.Networking.var.environment (expand)&#45;&gt;[root] var.environment</title>
<path fill="none" stroke="black" d="M2161,-71.6966C2161,-63.9827 2161,-54.7125 2161,-46.1124"/>
<polygon fill="black" stroke="black" points="2164.5,-46.1043 2161,-36.1043 2157.5,-46.1044 2164.5,-46.1043"/>
</g>
<!-- [root] module.Networking.var.vpc_cidr (expand)&#45;&gt;[root] module.Networking (expand) -->
<g id="edge47" class="edge"><title>[root] module.Networking.var.vpc_cidr (expand)&#45;&gt;[root] module.Networking (expand)</title>
<path fill="none" stroke="black" d="M1894.65,-77.3983C1915.18,-75.5849 1936.16,-73.737 1956,-72 2126.25,-57.0913 2323.15,-40.0804 2446.64,-29.4407"/>
<polygon fill="black" stroke="black" points="2447.21,-32.9042 2456.88,-28.5586 2446.61,-25.93 2447.21,-32.9042"/>
</g>
<!-- [root] module.Networking.var.vpc_cidr (expand)&#45;&gt;[root] var.vpc_cidr -->
<g id="edge48" class="edge"><title>[root] module.Networking.var.vpc_cidr (expand)&#45;&gt;[root] var.vpc_cidr</title>
<path fill="none" stroke="black" d="M1764,-71.6966C1764,-63.9827 1764,-54.7125 1764,-46.1124"/>
<polygon fill="black" stroke="black" points="1767.5,-46.1043 1764,-36.1043 1760.5,-46.1044 1767.5,-46.1043"/>
</g>
<!-- [root] provider[&quot;registry.terraform.io/hashicorp/aws&quot;] (close) -->
<g id="node36" class="node"><title>[root] provider[&quot;registry.terraform.io/hashicorp/aws&quot;] (close)</title>
<ellipse fill="none" stroke="black" cx="1009" cy="-378" rx="225.295" ry="18"/>
<text text-anchor="middle" x="1009" y="-374.3" font-family="Times,serif" font-size="14.00">[root] provider[&quot;registry.terraform.io/hashicorp/aws&quot;] (close)</text>
</g>
<!-- [root] provider[&quot;registry.terraform.io/hashicorp/aws&quot;] (close)&#45;&gt;[root] module.Networking.aws_route.public_internet_gateway (expand) -->
<g id="edge49" class="edge"><title>[root] provider[&quot;registry.terraform.io/hashicorp/aws&quot;] (close)&#45;&gt;[root] module.Networking.aws_route.public_internet_gateway (expand)</title>
<path fill="none" stroke="black" d="M846.762,-365.484C710.821,-355.582 511.349,-340.467 326.461,-324.028"/>
<polygon fill="black" stroke="black" points="326.542,-320.522 316.271,-323.12 325.92,-327.494 326.542,-320.522"/>
</g>
<!-- [root] provider[&quot;registry.terraform.io/hashicorp/aws&quot;] (close)&#45;&gt;[root] module.Networking.aws_route_table_association.private (expand) -->
<g id="edge50" class="edge"><title>[root] provider[&quot;registry.terraform.io/hashicorp/aws&quot;] (close)&#45;&gt;[root] module.Networking.aws_route_table_association.private (expand)</title>
<path fill="none" stroke="black" d="M1212.64,-370.293C1430.66,-362.389 1786.99,-347.393 2104.62,-324.079"/>
<polygon fill="black" stroke="black" points="2105.24,-327.543 2114.95,-323.317 2104.72,-320.562 2105.24,-327.543"/>
</g>
<!-- [root] provider[&quot;registry.terraform.io/hashicorp/aws&quot;] (close)&#45;&gt;[root] module.Networking.aws_route_table_association.public (expand) -->
<g id="edge51" class="edge"><title>[root] provider[&quot;registry.terraform.io/hashicorp/aws&quot;] (close)&#45;&gt;[root] module.Networking.aws_route_table_association.public (expand)</title>
<path fill="none" stroke="black" d="M1009,-359.697C1009,-351.983 1009,-342.712 1009,-334.112"/>
<polygon fill="black" stroke="black" points="1012.5,-334.104 1009,-324.104 1005.5,-334.104 1012.5,-334.104"/>
</g>
<!-- [root] provider[&quot;registry.terraform.io/hashicorp/aws&quot;] (close)&#45;&gt;[root] module.Networking.aws_security_group.default (expand) -->
<g id="edge52" class="edge"><title>[root] provider[&quot;registry.terraform.io/hashicorp/aws&quot;] (close)&#45;&gt;[root] module.Networking.aws_security_group.default (expand)</title>
<path fill="none" stroke="black" d="M922.922,-361.315C866.061,-347.306 807.531,-323.464 840,-288 869.951,-255.286 1123.73,-242.655 1291.51,-237.856"/>
<polygon fill="black" stroke="black" points="1291.78,-241.35 1301.68,-237.572 1291.59,-234.353 1291.78,-241.35"/>
</g>
<!-- [root] provider[&quot;registry.terraform.io/hashicorp/random&quot;] (close) -->
<g id="node37" class="node"><title>[root] provider[&quot;registry.terraform.io/hashicorp/random&quot;] (close)</title>
<ellipse fill="none" stroke="black" cx="3162" cy="-378" rx="239.243" ry="18"/>
<text text-anchor="middle" x="3162" y="-374.3" font-family="Times,serif" font-size="14.00">[root] provider[&quot;registry.terraform.io/hashicorp/random&quot;] (close)</text>
</g>
<!-- [root] provider[&quot;registry.terraform.io/hashicorp/random&quot;] (close)&#45;&gt;[root] random_id.random_id_prefix (expand) -->
<g id="edge56" class="edge"><title>[root] provider[&quot;registry.terraform.io/hashicorp/random&quot;] (close)&#45;&gt;[root] random_id.random_id_prefix (expand)</title>
<path fill="none" stroke="black" d="M3269.45,-361.897C3356.13,-349.712 3477.1,-332.709 3561.35,-320.866"/>
<polygon fill="black" stroke="black" points="3562.02,-324.306 3571.44,-319.448 3561.05,-317.374 3562.02,-324.306"/>
</g>
<!-- [root] root -->
<g id="node38" class="node"><title>[root] root</title>
<ellipse fill="none" stroke="black" cx="2081" cy="-450" rx="47.169" ry="18"/>
<text text-anchor="middle" x="2081" y="-446.3" font-family="Times,serif" font-size="14.00">[root] root</text>
</g>
<!-- [root] root&#45;&gt;[root] module.Networking (close) -->
<g id="edge58" class="edge"><title>[root] root&#45;&gt;[root] module.Networking (close)</title>
<path fill="none" stroke="black" d="M2081,-431.697C2081,-423.983 2081,-414.712 2081,-406.112"/>
<polygon fill="black" stroke="black" points="2084.5,-406.104 2081,-396.104 2077.5,-406.104 2084.5,-406.104"/>
</g>
<!-- [root] root&#45;&gt;[root] provider[&quot;registry.terraform.io/hashicorp/aws&quot;] (close) -->
<g id="edge59" class="edge"><title>[root] root&#45;&gt;[root] provider[&quot;registry.terraform.io/hashicorp/aws&quot;] (close)</title>
<path fill="none" stroke="black" d="M2034.94,-445.992C1890.44,-436.557 1440.68,-407.188 1187.25,-390.639"/>
<polygon fill="black" stroke="black" points="1187.41,-387.142 1177.2,-389.983 1186.95,-394.127 1187.41,-387.142"/>
</g>
<!-- [root] root&#45;&gt;[root] provider[&quot;registry.terraform.io/hashicorp/random&quot;] (close) -->
<g id="edge60" class="edge"><title>[root] root&#45;&gt;[root] provider[&quot;registry.terraform.io/hashicorp/random&quot;] (close)</title>
<path fill="none" stroke="black" d="M2127.1,-446.015C2271.46,-436.667 2720.4,-407.596 2977.06,-390.976"/>
<polygon fill="black" stroke="black" points="2977.49,-394.455 2987.24,-390.316 2977.04,-387.47 2977.49,-394.455"/>
</g>
</g>
</svg>
